<svg class="main-svg" xmlns="http://www.w3.org/2000/svg" xmlns:xlink="http://www.w3.org/1999/xlink" width="700" height="600" style="" viewBox="0 0 700 600"><rect x="0" y="0" width="700" height="600" style="fill: rgb(255, 255, 255); fill-opacity: 1;"/><defs id="defs-87de64"><g class="clips"><clipPath id="clip87de64xyplot" class="plotclip"><rect width="494" height="325"/></clipPath><clipPath class="axesclip" id="clip87de64x"><rect x="80" y="0" width="494" height="600"/></clipPath><clipPath class="axesclip" id="clip87de64y"><rect x="0" y="100" width="700" height="325"/></clipPath><clipPath class="axesclip" id="clip87de64xy"><rect x="80" y="100" width="494" height="325"/></clipPath></g><g class="gradients"/><g class="patterns"/></defs><g class="bglayer"><rect class="bg" x="80" y="100" width="494" height="325" style="fill: rgb(229, 236, 246); fill-opacity: 1; stroke-width: 0;"/></g><g class="layer-below"><g class="imagelayer"/><g class="shapelayer"/></g><g class="cartesianlayer"><g class="subplot xy"><g class="layer-subplot"><g class="shapelayer"/><g class="imagelayer"/></g><g class="gridlayer"><g class="x"><path class="xgrid crisp" transform="translate(113.38,0)" d="M0,100v325" style="stroke: rgb(255, 255, 255); stroke-opacity: 1; stroke-width: 1px;"/><path class="xgrid crisp" transform="translate(210.18,0)" d="M0,100v325" style="stroke: rgb(255, 255, 255); stroke-opacity: 1; stroke-width: 1px;"/><path class="xgrid crisp" transform="translate(313.65,0)" d="M0,100v325" style="stroke: rgb(255, 255, 255); stroke-opacity: 1; stroke-width: 1px;"/><path class="xgrid crisp" transform="translate(413.78,0)" d="M0,100v325" style="stroke: rgb(255, 255, 255); stroke-opacity: 1; stroke-width: 1px;"/><path class="xgrid crisp" transform="translate(517.26,0)" d="M0,100v325" style="stroke: rgb(255, 255, 255); stroke-opacity: 1; stroke-width: 1px;"/></g><g class="y"><path class="ygrid crisp" transform="translate(0,388.63)" d="M80,0h494" style="stroke: rgb(255, 255, 255); stroke-opacity: 1; stroke-width: 1px;"/><path class="ygrid crisp" transform="translate(0,352.25)" d="M80,0h494" style="stroke: rgb(255, 255, 255); stroke-opacity: 1; stroke-width: 1px;"/><path class="ygrid crisp" transform="translate(0,315.88)" d="M80,0h494" style="stroke: rgb(255, 255, 255); stroke-opacity: 1; stroke-width: 1px;"/><path class="ygrid crisp" transform="translate(0,279.5)" d="M80,0h494" style="stroke: rgb(255, 255, 255); stroke-opacity: 1; stroke-width: 1px;"/><path class="ygrid crisp" transform="translate(0,243.13)" d="M80,0h494" style="stroke: rgb(255, 255, 255); stroke-opacity: 1; stroke-width: 1px;"/><path class="ygrid crisp" transform="translate(0,206.76)" d="M80,0h494" style="stroke: rgb(255, 255, 255); stroke-opacity: 1; stroke-width: 1px;"/><path class="ygrid crisp" transform="translate(0,170.38)" d="M80,0h494" style="stroke: rgb(255, 255, 255); stroke-opacity: 1; stroke-width: 1px;"/><path class="ygrid crisp" transform="translate(0,134.01)" d="M80,0h494" style="stroke: rgb(255, 255, 255); stroke-opacity: 1; stroke-width: 1px;"/></g></g><g class="zerolinelayer"><path class="yzl zl crisp" transform="translate(0,425)" d="M80,0h494" style="stroke: rgb(255, 255, 255); stroke-opacity: 1; stroke-width: 2px;"/></g><path class="xlines-below"/><path class="ylines-below"/><g class="overlines-below"/><g class="xaxislayer-below"/><g class="yaxislayer-below"/><g class="overaxes-below"/><g class="plot" transform="translate(80,100)" clip-path="url(#clip87de64xyplot)"><g class="scatterlayer mlayer"><g class="trace scatter trace5a7ee6" style="stroke-miterlimit: 2;"><g class="fills"><g><path class="js-fill" d="M494,325L0,325L0,325L100.14,324.31L103.47,324.17L136.85,323.25L140.19,323.14L213.62,320.59L216.96,320.27L233.65,318.05L236.99,317.45L253.68,314.26L257.01,313.23L283.72,305.7L287.05,304.78L300.41,300.79L303.74,299.73L323.77,292.76L327.11,291.27L330.45,288.95L333.78,287.61L370.5,272.12L373.84,270.13L380.51,267L383.85,264.98L390.53,261.62L393.86,259.75L400.54,255.81L403.88,251.89L420.57,241.37L423.91,238.97L433.92,230.9L437.26,228.93L443.93,222.32L447.27,219.79L457.28,212.74L460.62,207.25L487.32,183.42L490.66,179.15L494,176.22" style="fill: rgb(33, 191, 115); fill-opacity: 0.5; stroke-width: 0;"/></g><g><path class="js-fill" d="M0,325L96.8,324.26L100.14,324.23L146.86,322.84L150.2,322.75L203.61,320.83L206.95,320.4L223.64,318.33L226.97,317.62L240.32,314.64L243.66,313.7L253.68,311.11L257.01,309.83L297.07,295.73L300.41,294.23L327.11,282.98L330.45,280.45L357.15,268.2L360.49,266.13L370.5,261.49L373.84,259.31L380.51,255.8L383.85,253.63L390.53,250.02L393.86,247.98L400.54,243.68L403.88,239.57L420.57,228.42L423.91,225.85L433.92,217.35L437.26,215.26L443.93,208.27L447.27,205.56L457.28,198.09L460.62,192.46L487.32,167.28L490.66,162.82L494,159.7L494,176.22L490.66,179.15L487.32,183.42L460.62,207.25L457.28,212.74L447.27,219.79L443.93,222.32L437.26,228.93L433.92,230.9L423.91,238.97L420.57,241.37L403.88,251.89L400.54,255.81L393.86,259.75L390.53,261.62L383.85,264.98L380.51,267L373.84,270.13L370.5,272.12L333.78,287.61L330.45,288.95L327.11,291.27L323.77,292.76L303.74,299.73L300.41,300.79L287.05,304.78L283.72,305.7L257.01,313.23L253.68,314.26L236.99,317.45L233.65,318.05L216.96,320.27L213.62,320.59L140.19,323.14L136.85,323.25L103.47,324.17L100.14,324.31L0,325Z" style="fill: rgb(255, 46, 99); fill-opacity: 0.5; stroke-width: 0;"/></g></g><g class="errorbars"/><g class="lines"><path class="js-line" d="M0,325L100.14,324.31L103.47,324.17L136.85,323.25L140.19,323.14L213.62,320.59L216.96,320.27L233.65,318.05L236.99,317.45L253.68,314.26L257.01,313.23L283.72,305.7L287.05,304.78L300.41,300.79L303.74,299.73L323.77,292.76L327.11,291.27L330.45,288.95L333.78,287.61L370.5,272.12L373.84,270.13L380.51,267L383.85,264.98L390.53,261.62L393.86,259.75L400.54,255.81L403.88,251.89L420.57,241.37L423.91,238.97L433.92,230.9L437.26,228.93L443.93,222.32L447.27,219.79L457.28,212.74L460.62,207.25L487.32,183.42L490.66,179.15L494,176.22" style="vector-effect: non-scaling-stroke; fill: none; stroke: rgb(33, 191, 115); stroke-opacity: 1; stroke-width: 2px; opacity: 1;"/></g><g class="points"/><g class="text"/></g><g class="trace scatter trace90b338" style="stroke-miterlimit: 2;"><g class="fills"><g><path class="js-fill" d="M0,324.98L40.05,324.28L43.39,324.13L103.47,322.17L106.81,322.15L150.2,321.18L153.54,321.03L170.23,319.74L173.57,319.34L186.92,317.16L190.26,316.18L203.61,311.26L206.95,309.8L213.62,305.74L216.96,303.41L233.65,291.06L236.99,288.12L250.34,276.92L253.68,274.19L277.04,253.11L280.38,250.18L290.39,240.78L293.73,237.79L307.08,226.39L310.42,223.21L320.43,214.92L323.77,212.23L333.78,203.18L337.12,200.19L353.81,184.92L357.15,181.53L380.51,159.58L383.85,156.19L393.86,146.57L397.2,142.95L410.55,127.98L413.89,124.81L420.57,117.62L423.91,113.32L433.92,100.28L437.26,96.77L447.27,83.4L450.61,78.55L457.28,69.84L460.62,66.07L473.97,46.98L477.31,42.08L487.32,27.71L490.66,21.31L494,16.25L494,159.7L490.66,162.82L487.32,167.28L460.62,192.46L457.28,198.09L447.27,205.56L443.93,208.27L437.26,215.26L433.92,217.35L423.91,225.85L420.57,228.42L403.88,239.57L400.54,243.68L393.86,247.98L390.53,250.02L383.85,253.63L380.51,255.8L373.84,259.31L370.5,261.49L360.49,266.13L357.15,268.2L330.45,280.45L327.11,282.98L300.41,294.23L297.07,295.73L257.01,309.83L253.68,311.11L243.66,313.7L240.32,314.64L226.97,317.62L223.64,318.33L206.95,320.4L203.61,320.83L150.2,322.75L146.86,322.84L100.14,324.23L96.8,324.26L0,325Z" style="fill: rgb(254, 152, 1); fill-opacity: 0.5; stroke-width: 0;"/></g></g><g class="errorbars"/><g class="lines"><path class="js-line" d="M0,325L96.8,324.26L100.14,324.23L146.86,322.84L150.2,322.75L203.61,320.83L206.95,320.4L223.64,318.33L226.97,317.62L240.32,314.64L243.66,313.7L253.68,311.11L257.01,309.83L297.07,295.73L300.41,294.23L327.11,282.98L330.45,280.45L357.15,268.2L360.49,266.13L370.5,261.49L373.84,259.31L380.51,255.8L383.85,253.63L390.53,250.02L393.86,247.98L400.54,243.68L403.88,239.57L420.57,228.42L423.91,225.85L433.92,217.35L437.26,215.26L443.93,208.27L447.27,205.56L457.28,198.09L460.62,192.46L487.32,167.28L490.66,162.82L494,159.7" style="vector-effect: non-scaling-stroke; fill: none; stroke: rgb(255, 46, 99); stroke-opacity: 1; stroke-width: 2px; opacity: 1;"/></g><g class="points"/><g class="text"/></g><g class="trace scatter trace222760" style="stroke-miterlimit: 2;"><g class="fills"/><g class="errorbars"/><g class="lines"><path class="js-line" d="M0,324.98L40.05,324.28L43.39,324.13L103.47,322.17L106.81,322.15L150.2,321.18L153.54,321.03L170.23,319.74L173.57,319.34L186.92,317.16L190.26,316.18L203.61,311.26L206.95,309.8L213.62,305.74L216.96,303.41L233.65,291.06L236.99,288.12L250.34,276.92L253.68,274.19L277.04,253.11L280.38,250.18L290.39,240.78L293.73,237.79L307.08,226.39L310.42,223.21L320.43,214.92L323.77,212.23L333.78,203.18L337.12,200.19L353.81,184.92L357.15,181.53L380.51,159.58L383.85,156.19L393.86,146.57L397.2,142.95L410.55,127.98L413.89,124.81L420.57,117.62L423.91,113.32L433.92,100.28L437.26,96.77L447.27,83.4L450.61,78.55L457.28,69.84L460.62,66.07L473.97,46.98L477.31,42.08L487.32,27.71L490.66,21.31L494,16.25" style="vector-effect: non-scaling-stroke; fill: none; stroke: rgb(254, 152, 1); stroke-opacity: 1; stroke-width: 2px; opacity: 1;"/></g><g class="points"/><g class="text"/></g></g></g><g class="overplot"/><path class="xlines-above crisp" d="M0,0" style="fill: none;"/><path class="ylines-above crisp" d="M0,0" style="fill: none;"/><g class="overlines-above"/><g class="xaxislayer-above"><g class="xtick"><text text-anchor="middle" x="0" y="438" transform="translate(113.38,0)" style="font-family: 'Open Sans', verdana, arial, sans-serif; font-size: 12px; fill: rgb(42, 63, 95); fill-opacity: 1; white-space: pre; opacity: 1;">Feb 2020</text></g><g class="xtick"><text text-anchor="middle" x="0" y="438" style="font-family: 'Open Sans', verdana, arial, sans-serif; font-size: 12px; fill: rgb(42, 63, 95); fill-opacity: 1; white-space: pre; opacity: 1;" transform="translate(210.18,0)">Mar 2020</text></g><g class="xtick"><text text-anchor="middle" x="0" y="438" style="font-family: 'Open Sans', verdana, arial, sans-serif; font-size: 12px; fill: rgb(42, 63, 95); fill-opacity: 1; white-space: pre; opacity: 1;" transform="translate(313.65,0)">Apr 2020</text></g><g class="xtick"><text text-anchor="middle" x="0" y="438" style="font-family: 'Open Sans', verdana, arial, sans-serif; font-size: 12px; fill: rgb(42, 63, 95); fill-opacity: 1; white-space: pre; opacity: 1;" transform="translate(413.78,0)">May 2020</text></g><g class="xtick"><text text-anchor="middle" x="0" y="438" style="font-family: 'Open Sans', verdana, arial, sans-serif; font-size: 12px; fill: rgb(42, 63, 95); fill-opacity: 1; white-space: pre; opacity: 1;" transform="translate(517.26,0)">Jun 2020</text></g></g><g class="yaxislayer-above"><g class="ytick"><text text-anchor="end" x="79" y="4.199999999999999" transform="translate(0,425)" style="font-family: 'Open Sans', verdana, arial, sans-serif; font-size: 12px; fill: rgb(42, 63, 95); fill-opacity: 1; white-space: pre; opacity: 1;">0</text></g><g class="ytick"><text text-anchor="end" x="79" y="4.199999999999999" style="font-family: 'Open Sans', verdana, arial, sans-serif; font-size: 12px; fill: rgb(42, 63, 95); fill-opacity: 1; white-space: pre; opacity: 1;" transform="translate(0,388.63)">1M</text></g><g class="ytick"><text text-anchor="end" x="79" y="4.199999999999999" style="font-family: 'Open Sans', verdana, arial, sans-serif; font-size: 12px; fill: rgb(42, 63, 95); fill-opacity: 1; white-space: pre; opacity: 1;" transform="translate(0,352.25)">2M</text></g><g class="ytick"><text text-anchor="end" x="79" y="4.199999999999999" style="font-family: 'Open Sans', verdana, arial, sans-serif; font-size: 12px; fill: rgb(42, 63, 95); fill-opacity: 1; white-space: pre; opacity: 1;" transform="translate(0,315.88)">3M</text></g><g class="ytick"><text text-anchor="end" x="79" y="4.199999999999999" style="font-family: 'Open Sans', verdana, arial, sans-serif; font-size: 12px; fill: rgb(42, 63, 95); fill-opacity: 1; white-space: pre; opacity: 1;" transform="translate(0,279.5)">4M</text></g><g class="ytick"><text text-anchor="end" x="79" y="4.199999999999999" style="font-family: 'Open Sans', verdana, arial, sans-serif; font-size: 12px; fill: rgb(42, 63, 95); fill-opacity: 1; white-space: pre; opacity: 1;" transform="translate(0,243.13)">5M</text></g><g class="ytick"><text text-anchor="end" x="79" y="4.199999999999999" style="font-family: 'Open Sans', verdana, arial, sans-serif; font-size: 12px; fill: rgb(42, 63, 95); fill-opacity: 1; white-space: pre; opacity: 1;" transform="translate(0,206.76)">6M</text></g><g class="ytick"><text text-anchor="end" x="79" y="4.199999999999999" style="font-family: 'Open Sans', verdana, arial, sans-serif; font-size: 12px; fill: rgb(42, 63, 95); fill-opacity: 1; white-space: pre; opacity: 1;" transform="translate(0,170.38)">7M</text></g><g class="ytick"><text text-anchor="end" x="79" y="4.199999999999999" style="font-family: 'Open Sans', verdana, arial, sans-serif; font-size: 12px; fill: rgb(42, 63, 95); fill-opacity: 1; white-space: pre; opacity: 1;" transform="translate(0,134.01)">8M</text></g></g><g class="overaxes-above"/></g></g><g class="polarlayer"/><g class="smithlayer"/><g class="ternarylayer"/><g class="geolayer"/><g class="funnelarealayer"/><g class="pielayer"/><g class="iciclelayer"/><g class="treemaplayer"/><g class="sunburstlayer"/><g class="glimages"/><defs id="topdefs-87de64"><g class="clips"/><clipPath id="legend87de64"><rect width="104" height="86" x="0" y="0"/></clipPath><clipPath id="rangesliderx-87de64"><rect x="0" y="0" width="494" height="63"/></clipPath></defs><g class="layer-above"><g class="imagelayer"/><g class="shapelayer"/></g><g class="infolayer"><g class="legend" pointer-events="all" transform="translate(583.88,100)"><rect class="bg" shape-rendering="crispEdges" width="104" height="86" x="0" y="0" style="stroke: rgb(68, 68, 68); stroke-opacity: 1; fill: rgb(255, 255, 255); fill-opacity: 1; stroke-width: 0px;"/><g class="scrollbox" transform="" clip-path="url(#legend87de64)"><text class="legendtitletext" text-anchor="start" x="2" y="18.2" style="font-family: 'Open Sans', verdana, arial, sans-serif; font-size: 14px; fill: rgb(42, 63, 95); fill-opacity: 1; white-space: pre;">Case</text><g class="groups" transform=""><g class="traces" transform="translate(0,32.7)" style="opacity: 1;"><text class="legendtext" text-anchor="start" x="40" y="4.680000000000001" style="font-family: 'Open Sans', verdana, arial, sans-serif; font-size: 12px; fill: rgb(42, 63, 95); fill-opacity: 1; white-space: pre;">Recovered</text><g class="layers"><g class="legendfill"><path class="js-fill" d="M5,-2h30v6h-30z" style="stroke-width: 0; fill: rgb(33, 191, 115); fill-opacity: 0.5;"/></g><g class="legendlines"><path class="js-line" d="M5,-2h30" style="fill: none; stroke: rgb(33, 191, 115); stroke-opacity: 1; stroke-width: 2px;"/></g><g class="legendsymbols"><g class="legendpoints"/></g></g><rect class="legendtoggle" x="0" y="-9.5" width="98.84375" height="19" style="fill: rgb(0, 0, 0); fill-opacity: 0;"/></g></g><g class="groups" transform=""><g class="traces" transform="translate(0,51.7)" style="opacity: 1;"><text class="legendtext" text-anchor="start" x="40" y="4.680000000000001" style="font-family: 'Open Sans', verdana, arial, sans-serif; font-size: 12px; fill: rgb(42, 63, 95); fill-opacity: 1; white-space: pre;">Deaths</text><g class="layers"><g class="legendfill"><path class="js-fill" d="M5,-2h30v6h-30z" style="stroke-width: 0; fill: rgb(255, 46, 99); fill-opacity: 0.5;"/></g><g class="legendlines"><path class="js-line" d="M5,-2h30" style="fill: none; stroke: rgb(255, 46, 99); stroke-opacity: 1; stroke-width: 2px;"/></g><g class="legendsymbols"><g class="legendpoints"/></g></g><rect class="legendtoggle" x="0" y="-9.5" width="98.84375" height="19" style="fill: rgb(0, 0, 0); fill-opacity: 0;"/></g></g><g class="groups" transform=""><g class="traces" transform="translate(0,70.7)" style="opacity: 1;"><text class="legendtext" text-anchor="start" x="40" y="4.680000000000001" style="font-family: 'Open Sans', verdana, arial, sans-serif; font-size: 12px; fill: rgb(42, 63, 95); fill-opacity: 1; white-space: pre;">Active</text><g class="layers"><g class="legendfill"><path class="js-fill" d="M5,-2h30v6h-30z" style="stroke-width: 0; fill: rgb(254, 152, 1); fill-opacity: 0.5;"/></g><g class="legendlines"><path class="js-line" d="M5,-2h30" style="fill: none; stroke: rgb(254, 152, 1); stroke-opacity: 1; stroke-width: 2px;"/></g><g class="legendsymbols"><g class="legendpoints"/></g></g><rect class="legendtoggle" x="0" y="-9.5" width="98.84375" height="19" style="fill: rgb(0, 0, 0); fill-opacity: 0;"/></g></g></g><rect class="scrollbar" rx="20" ry="3" width="0" height="0" x="0" y="0" style="fill: rgb(128, 139, 164); fill-opacity: 1;"/></g><g class="g-gtitle"><text class="gtitle" x="35" y="50" text-anchor="start" dy="0em" style="font-family: 'Open Sans', verdana, arial, sans-serif; font-size: 17px; fill: rgb(42, 63, 95); opacity: 1; font-weight: normal; white-space: pre;">Cases over time</text></g><g class="rangeslider-container" pointer-events="all" transform="translate(80,457)"><rect class="rangeslider-bg" x="0" y="0" shape-rendering="crispEdges" width="494" height="63" transform="" fill="#E5ECF6" stroke="#444" stroke-width="0"/><g class="rangeslider-rangeplot xy" clip-path="url(#rangesliderx-87de64)"><g class="layer-subplot"><g class="shapelayer"/><g class="imagelayer"/></g><g class="gridlayer"><g class="x"/><g class="y"/></g><g class="zerolinelayer"/><path class="xlines-below"/><path class="ylines-below"/><g class="overlines-below"/><g class="xaxislayer-below"/><g class="yaxislayer-below"/><g class="overaxes-below"/><g class="plot"><g class="scatterlayer mlayer rangeplot"><g class="trace scatter trace5a7ee6" style="stroke-miterlimit: 2;"><g class="fills"><g><path class="js-fill" d="M494,63L0,63L0,63L203.61,62.31L206.95,62.24L250.34,61.08L253.68,60.92L343.8,55.02L347.14,54.77L403.88,48.83L407.22,48.44L437.26,44.38L440.59,43.65L487.32,35.56L490.66,34.73L494,34.16" style="fill: rgb(33, 191, 115); fill-opacity: 0.5; stroke-width: 0;"/></g><g><path class="js-fill" d="M0,63L196.93,62.26L200.27,62.21L233.65,61.3L236.99,61.14L280.38,58.48L283.72,58.21L343.8,53.24L347.14,52.95L410.55,45.62L413.89,45.17L437.26,41.73L440.59,40.96L487.32,32.43L490.66,31.56L494,30.96L494,34.16L490.66,34.73L487.32,35.56L440.59,43.65L437.26,44.38L407.22,48.44L403.88,48.83L347.14,54.77L343.8,55.02L253.68,60.92L250.34,61.08L206.95,62.24L203.61,62.31L0,63Z" style="fill: rgb(255, 46, 99); fill-opacity: 0.5; stroke-width: 0;"/></g></g><g class="errorbars"/><g class="lines"><path class="js-line" d="M0,63L203.61,62.31L206.95,62.24L250.34,61.08L253.68,60.92L343.8,55.02L347.14,54.77L403.88,48.83L407.22,48.44L437.26,44.38L440.59,43.65L487.32,35.56L490.66,34.73L494,34.16" style="vector-effect: non-scaling-stroke; fill: none; stroke: rgb(33, 191, 115); stroke-opacity: 1; stroke-width: 2px; opacity: 1;"/></g><g class="points"/><g class="text"/></g><g class="trace scatter trace90b338" style="stroke-miterlimit: 2;"><g class="fills"><g><path class="js-fill" d="M0,63L150.2,62.26L153.54,62.23L190.26,61.29L193.59,61.08L216.96,58.82L220.3,58.34L243.66,54.7L247,54.18L280.38,48.5L283.72,47.82L317.09,42.15L320.43,41.66L357.15,35.19L360.49,34.59L393.86,28.41L397.2,27.71L447.27,16.17L450.61,15.23L490.66,4.13L494,3.15L494,30.96L490.66,31.56L487.32,32.43L440.59,40.96L437.26,41.73L413.89,45.17L410.55,45.62L347.14,52.95L343.8,53.24L283.72,58.21L280.38,58.48L236.99,61.14L233.65,61.3L200.27,62.21L196.93,62.26L0,63Z" style="fill: rgb(254, 152, 1); fill-opacity: 0.5; stroke-width: 0;"/></g></g><g class="errorbars"/><g class="lines"><path class="js-line" d="M0,63L196.93,62.26L200.27,62.21L233.65,61.3L236.99,61.14L280.38,58.48L283.72,58.21L343.8,53.24L347.14,52.95L410.55,45.62L413.89,45.17L437.26,41.73L440.59,40.96L487.32,32.43L490.66,31.56L494,30.96" style="vector-effect: non-scaling-stroke; fill: none; stroke: rgb(255, 46, 99); stroke-opacity: 1; stroke-width: 2px; opacity: 1;"/></g><g class="points"/><g class="text"/></g><g class="trace scatter trace222760" style="stroke-miterlimit: 2;"><g class="fills"/><g class="errorbars"/><g class="lines"><path class="js-line" d="M0,63L150.2,62.26L153.54,62.23L190.26,61.29L193.59,61.08L216.96,58.82L220.3,58.34L243.66,54.7L247,54.18L280.38,48.5L283.72,47.82L317.09,42.15L320.43,41.66L357.15,35.19L360.49,34.59L393.86,28.41L397.2,27.71L447.27,16.17L450.61,15.23L490.66,4.13L494,3.15" style="vector-effect: non-scaling-stroke; fill: none; stroke: rgb(254, 152, 1); stroke-opacity: 1; stroke-width: 2px; opacity: 1;"/></g><g class="points"/><g class="text"/></g></g></g><g class="overplot"/><path class="xlines-above crisp" style="fill: none;"/><path class="ylines-above crisp" style="fill: none;"/><g class="overlines-above"/><g class="xaxislayer-above"/><g class="yaxislayer-above"/><g class="overaxes-above"/></g><rect class="rangeslider-mask-min" x="0" y="0" shape-rendering="crispEdges" height="63" width="0" style="fill: rgb(0, 0, 0); fill-opacity: 0.4;"/><rect class="rangeslider-mask-max" y="0" shape-rendering="crispEdges" height="63" x="494" width="0" style="fill: rgb(0, 0, 0); fill-opacity: 0.4;"/><g class="rangeslider-grabber-min" transform="translate(-2.5,0.5)"><rect class="rangeslider-handle-min" x="0" width="4" rx="1" fill="#fff" stroke="#444" stroke-width="1" shape-rendering="crispEdges" y="16" height="32"/><rect class="rangeslider-grabarea-min" width="10" x="0" y="0" fill="transparent" height="63"/></g><g class="rangeslider-grabber-max" transform="translate(492.5,0.5)"><rect class="rangeslider-handle-max" x="0" width="4" rx="1" fill="#fff" stroke="#444" stroke-width="1" shape-rendering="crispEdges" y="16" height="32"/><rect class="rangeslider-grabarea-max" width="10" x="0" y="0" fill="transparent" height="63"/></g></g><g class="g-ytitle"><text class="ytitle" transform="rotate(-90,36.496875,262.5)" x="36.496875" y="262.5" text-anchor="middle" style="font-family: 'Open Sans', verdana, arial, sans-serif; font-size: 14px; fill: rgb(42, 63, 95); opacity: 1; font-weight: normal; white-space: pre;">Count</text></g><g class="g-xtitle"><text class="xtitle" x="327" y="551" text-anchor="middle" style="font-family: 'Open Sans', verdana, arial, sans-serif; font-size: 14px; fill: rgb(42, 63, 95); opacity: 1; font-weight: normal; white-space: pre;">Date</text></g></g></svg>